<?xml version="1.0" encoding="iso-8859-1"?>
<!-- Generator: Adobe Illustrator 22.1.0, SVG Export Plug-In . SVG Version: 6.00 Build 0)  -->
<svg version="1.1" id="Layer_1" xmlns="http://www.w3.org/2000/svg" xmlns:xlink="http://www.w3.org/1999/xlink" x="0px" y="0px"	 width="64" height="64" viewBox="0 0 64 64" style="enable-background:new 0 0 64 64;" xml:space="preserve">
<g id="graphic-busyindicator-medium-8_x2B_1">
	
		<rect id="graphic-busyindicator-medium-8_x2B_1_1_" x="1.829" y="1.829" style="opacity:0;fill-rule:evenodd;clip-rule:evenodd;fill:#FFFFFF;" width="60.343" height="60.343"/>
	<path style="fill:#FFFFFF;" d="M39.831,61.226l-0.518-1.932c7.29-1.953,13.384-6.629,17.158-13.165
		c3.773-6.537,4.776-14.152,2.822-21.442l1.932-0.518c2.092,7.806,1.019,15.96-3.022,22.96
		C54.162,54.128,47.638,59.134,39.831,61.226z"/>
	<path style="opacity:0.2;fill:#FFFFFF;" d="M31.95,62.27c-5.243,0-10.417-1.375-15.079-4.066c-7-4.041-12.006-10.565-14.098-18.372
		s-1.019-15.96,3.022-22.959c4.041-7,10.566-12.006,18.373-14.098c7.806-2.091,15.96-1.019,22.96,3.022
		c6.999,4.041,12.005,10.566,14.097,18.373l-1.932,0.518c-1.953-7.291-6.629-13.384-13.166-17.158
		c-6.536-3.774-14.151-4.777-21.441-2.823c-7.291,1.954-13.384,6.629-17.158,13.166S2.752,32.023,4.706,39.313
		c1.954,7.29,6.629,13.384,13.166,17.158c6.537,3.772,14.152,4.775,21.442,2.822l0.518,1.932
		C37.225,61.924,34.578,62.27,31.95,62.27z"/>
	<rect style="opacity:0;fill:#FFFFFF;" width="64" height="64"/>
</g>
</svg>
