<?xml version="1.0" encoding="iso-8859-1"?>
<!-- Generator: Adobe Illustrator 22.1.0, SVG Export Plug-In . SVG Version: 6.00 Build 0)  -->
<svg version="1.1" id="Layer_1" xmlns="http://www.w3.org/2000/svg" xmlns:xlink="http://www.w3.org/1999/xlink" x="0px" y="0px"	 width="64" height="64" viewBox="0 0 64 64" style="enable-background:new 0 0 64 64;" xml:space="preserve">
<g id="graphic-busyindicator-medium-21">
	
		<rect id="graphic-busyindicator-medium-21_1_" x="1.829" y="1.829" style="opacity:0;fill-rule:evenodd;clip-rule:evenodd;fill:#FFFFFF;" width="60.343" height="60.343"/>
	<path style="fill:#FFFFFF;" d="M5.796,47.129C-2.545,32.68,2.423,14.138,16.872,5.796l1,1.732
		c-6.537,3.773-11.212,9.867-13.166,17.158c-1.953,7.291-0.951,14.905,2.823,21.442L5.796,47.129z"/>
	<path style="opacity:0.2;fill:#FFFFFF;" d="M32.051,62.252c-10.465,0-20.657-5.427-26.255-15.123l1.732-1
		c7.79,13.494,25.104,18.135,38.6,10.343c13.493-7.791,18.133-25.107,10.343-38.6c-7.79-13.494-25.107-18.134-38.6-10.343l-1-1.732
		c14.448-8.341,32.99-3.374,41.333,11.075c8.342,14.448,3.373,32.99-11.075,41.333C42.377,60.947,37.181,62.252,32.051,62.252z"/>
	<rect style="opacity:0;fill:#FFFFFF;" width="64" height="64"/>
</g>
</svg>
