<?xml version="1.0" encoding="iso-8859-1"?>
<!-- Generator: Adobe Illustrator 22.1.0, SVG Export Plug-In . SVG Version: 6.00 Build 0)  -->
<svg version="1.1" id="Layer_1" xmlns="http://www.w3.org/2000/svg" xmlns:xlink="http://www.w3.org/1999/xlink" x="0px" y="0px"	 width="64" height="64" viewBox="0 0 64 64" style="enable-background:new 0 0 64 64;" xml:space="preserve">
<g id="graphic-busyindicator-medium-12">
	
		<rect id="graphic-busyindicator-medium-12_1_" x="1.829" y="1.829" style="opacity:0;fill-rule:evenodd;clip-rule:evenodd;fill:#FFFFFF;" width="60.343" height="60.343"/>
	<path style="fill:#FFFFFF;" d="M61.226,39.831l-1.932-0.518c1.954-7.291,0.951-14.905-2.822-21.442
		c-3.774-6.537-9.868-11.212-17.158-13.166l0.518-1.932c7.807,2.092,14.331,7.098,18.372,14.098
		C62.244,23.871,63.317,32.025,61.226,39.831z"/>
	<path style="opacity:0.2;fill:#FFFFFF;" d="M32.05,62.27c-2.629,0-5.274-0.345-7.881-1.044
		c-7.807-2.092-14.332-7.098-18.373-14.097c-4.041-7-5.114-15.153-3.022-22.96S9.872,9.837,16.872,5.796
		c7-4.041,15.155-5.114,22.959-3.022l-0.518,1.932c-7.289-1.954-14.906-0.951-21.442,2.823c-6.537,3.774-11.212,9.868-13.166,17.158
		S3.754,39.592,7.528,46.128c3.774,6.537,9.868,11.213,17.158,13.166c7.289,1.952,14.904,0.951,21.441-2.822
		c6.537-3.774,11.213-9.868,13.166-17.158l1.932,0.518c-2.092,7.807-7.098,14.331-14.097,18.372
		C42.467,60.895,37.292,62.27,32.05,62.27z"/>
	<rect style="opacity:0;fill:#FFFFFF;" width="64" height="64"/>
</g>
</svg>
