<?xml version="1.0" encoding="iso-8859-1"?>
<!-- Generator: Adobe Illustrator 22.1.0, SVG Export Plug-In . SVG Version: 6.00 Build 0)  -->
<svg version="1.1" id="Layer_1" xmlns="http://www.w3.org/2000/svg" xmlns:xlink="http://www.w3.org/1999/xlink" x="0px" y="0px"	 width="64" height="64" viewBox="0 0 64 64" style="enable-background:new 0 0 64 64;" xml:space="preserve">
<g id="graphic-busyindicator-medium-11">
	
		<rect id="graphic-busyindicator-medium-11_1_" x="1.829" y="1.829" style="opacity:0;fill-rule:evenodd;clip-rule:evenodd;fill:#FFFFFF;" width="60.343" height="60.343"/>
	<path style="fill:#FFFFFF;" d="M58.204,47.129l-1.732-1c7.791-13.494,3.15-30.81-10.343-38.6l1-1.732
		C61.577,14.139,66.546,32.68,58.204,47.129z"/>
	<path style="opacity:0.2;fill:#FFFFFF;" d="M31.949,62.251c-5.13,0-10.324-1.303-15.077-4.047
		C2.423,49.861-2.545,31.32,5.796,16.872C14.138,2.422,32.683-2.545,47.129,5.796l-1,1.732c-13.496-7.792-30.81-3.15-38.6,10.343
		c-7.791,13.493-3.151,30.809,10.343,38.6c13.492,7.79,30.808,3.149,38.6-10.343l1.732,1C52.605,56.824,42.413,62.251,31.949,62.251
		z"/>
	<rect style="opacity:0;fill:#FFFFFF;" width="64" height="64"/>
</g>
</svg>
