<?xml version="1.0" encoding="iso-8859-1"?>
<!-- Generator: Adobe Illustrator 22.1.0, SVG Export Plug-In . SVG Version: 6.00 Build 0)  -->
<svg version="1.1" id="Layer_1" xmlns="http://www.w3.org/2000/svg" xmlns:xlink="http://www.w3.org/1999/xlink" x="0px" y="0px"	 width="64" height="64" viewBox="0 0 64 64" style="enable-background:new 0 0 64 64;" xml:space="preserve">
<g id="graphic-busyindicator-medium-9">
	
		<rect id="graphic-busyindicator-medium-9_1_" x="1.829" y="1.829" style="opacity:0;fill-rule:evenodd;clip-rule:evenodd;fill:#FFFFFF;" width="60.343" height="60.343"/>
	<path style="fill:#FFFFFF;" d="M47.129,58.204l-1-1.732c13.493-7.791,18.133-25.107,10.343-38.6l1.732-1
		C66.546,31.319,61.577,49.861,47.129,58.204z"/>
	<path style="opacity:0.2;fill:#FFFFFF;" d="M32.051,62.252c-10.465,0-20.657-5.427-26.255-15.123
		c-4.041-6.999-5.114-15.153-3.022-22.96S9.873,9.837,16.872,5.796c14.448-8.341,32.99-3.374,41.333,11.075l-1.732,1
		c-7.79-13.494-25.107-18.134-38.6-10.343c-13.494,7.79-18.133,25.106-10.343,38.6c7.79,13.494,25.104,18.135,38.6,10.343l1,1.732
		C42.377,60.947,37.181,62.252,32.051,62.252z"/>
	<rect style="opacity:0;fill:#FFFFFF;" width="64" height="64"/>
</g>
</svg>
