<?xml version="1.0" encoding="iso-8859-1"?>
<!-- Generator: Adobe Illustrator 22.1.0, SVG Export Plug-In . SVG Version: 6.00 Build 0)  -->
<svg version="1.1" id="Layer_1" xmlns="http://www.w3.org/2000/svg" xmlns:xlink="http://www.w3.org/1999/xlink" x="0px" y="0px"	 width="64" height="64" viewBox="0 0 64 64" style="enable-background:new 0 0 64 64;" xml:space="preserve">
<g id="graphic-busyindicator-medium-7_x2B_1">
	
		<rect id="graphic-busyindicator-medium-7_x2B_1_1_" x="1.829" y="1.829" style="opacity:0;fill-rule:evenodd;clip-rule:evenodd;fill:#FFFFFF;" width="60.343" height="60.343"/>
	<path style="fill:#FFFFFF;" d="M32,62.257v-2c15.581,0,28.257-12.676,28.257-28.257h2C62.257,48.684,48.684,62.257,32,62.257z"/>
	<path style="opacity:0.2;fill:#FFFFFF;" d="M32,62.257C15.316,62.257,1.743,48.684,1.743,32C1.743,15.316,15.316,1.743,32,1.743
		c16.684,0,30.257,13.573,30.257,30.257h-2C60.257,16.419,47.581,3.743,32,3.743S3.743,16.419,3.743,32S16.419,60.257,32,60.257
		V62.257z"/>
	<rect style="opacity:0;fill:#FFFFFF;" width="64" height="64"/>
</g>
</svg>
