<?xml version="1.0" encoding="iso-8859-1"?>
<!-- Generator: Adobe Illustrator 22.1.0, SVG Export Plug-In . SVG Version: 6.00 Build 0)  -->
<svg version="1.1" id="Layer_1" xmlns="http://www.w3.org/2000/svg" xmlns:xlink="http://www.w3.org/1999/xlink" x="0px" y="0px"	 width="64" height="64" viewBox="0 0 64 64" style="enable-background:new 0 0 64 64;" xml:space="preserve">
<g id="graphic-busyindicator-medium-16">
	
		<rect id="graphic-busyindicator-medium-16_1_" x="1.829" y="1.829" style="opacity:0;fill-rule:evenodd;clip-rule:evenodd;fill:#FFFFFF;" width="60.343" height="60.343"/>
	<path style="fill:#FFFFFF;" d="M12.019,12.019l-1.414-1.414C16.32,4.89,23.918,1.743,32,1.743s15.681,3.147,21.395,8.862
		l-1.414,1.414C46.644,6.682,39.548,3.743,32,3.743S17.356,6.682,12.019,12.019z"/>
	<path style="opacity:0.2;fill:#FFFFFF;" d="M32,62.257c-8.082,0-15.68-3.147-21.395-8.862C4.89,47.681,1.743,40.082,1.743,32
		s3.147-15.68,8.862-21.395l1.414,1.414C6.682,17.356,3.743,24.452,3.743,32s2.939,14.644,8.276,19.98
		c5.337,5.337,12.433,8.276,19.981,8.276s14.644-2.939,19.98-8.276S60.257,39.548,60.257,32s-2.939-14.644-8.276-19.981l1.414-1.414
		C59.109,16.32,62.257,23.918,62.257,32s-3.147,15.681-8.862,21.395C47.681,59.109,40.082,62.257,32,62.257z"/>
	<rect style="opacity:0;fill:#FFFFFF;" width="64" height="64"/>
</g>
</svg>
