<?xml version="1.0" standalone="no"?><!-- Generator: Gravit.io --><svg xmlns="http://www.w3.org/2000/svg" xmlns:xlink="http://www.w3.org/1999/xlink" style="isolation:isolate" viewBox="0 0 26 62.85" width="26" height="62.85"><defs><clipPath id="_clipPath_ALs4DNqPJZstbcMke1LIlWhuPiMFVBVx"><rect width="26" height="62.85"/></clipPath></defs><g clip-path="url(#_clipPath_ALs4DNqPJZstbcMke1LIlWhuPiMFVBVx)"><path d=" M 9.8 49.2 L 9.8 48.75 L 9.8 48.75 Q 10 43.8 10.625 39.9 L 10.625 39.9 L 10.625 39.9 Q 11.25 36 12.45 32.35 L 12.45 32.35 L 12.45 32.35 Q 13.65 28.7 15.4 25.35 L 15.4 25.35 L 15.4 25.35 Q 17.15 22 19.6 18.6 L 19.6 18.6 L 2.4 18.6 L 2.4 17.2 L 21.7 17.2 L 21.7 18.1 L 21.7 18.1 Q 18.8 21.95 16.925 25.55 L 16.925 25.55 L 16.925 25.55 Q 15.05 29.15 13.9 32.825 L 13.9 32.825 L 13.9 32.825 Q 12.75 36.5 12.225 40.5 L 12.225 40.5 L 12.225 40.5 Q 11.7 44.5 11.5 49.2 L 11.5 49.2 L 9.8 49.2 Z " fill="rgb(255,255,255)"/></g></svg>