<?xml version="1.0" encoding="iso-8859-1"?>
<!-- Generator: Adobe Illustrator 24.0.2, SVG Export Plug-In . SVG Version: 6.00 Build 0)  -->
<svg version="1.1" id="Layer_1" xmlns="http://www.w3.org/2000/svg" xmlns:xlink="http://www.w3.org/1999/xlink" x="0px" y="0px"	 width="48" height="48" viewBox="0 0 48 48" style="enable-background:new 0 0 48 48;" xml:space="preserve">
<g id="icon-splus-hide-password_2_">
	<g>
		<path style="opacity:0.6;fill:#FFFFFF;" d="M31.227,43.396c-0.462,0-0.877-0.322-0.978-0.792L28.7,35.316
			c-0.114-0.54,0.23-1.071,0.771-1.187c0.545-0.114,1.071,0.231,1.187,0.771l1.549,7.288c0.114,0.54-0.23,1.071-0.771,1.187
			C31.365,43.39,31.296,43.396,31.227,43.396z"/>
		<path style="opacity:0.6;fill:#FFFFFF;" d="M44.434,37.517c-0.31,0-0.614-0.143-0.81-0.412l-4.842-6.664
			c-0.325-0.447-0.226-1.072,0.221-1.396c0.447-0.324,1.072-0.227,1.396,0.221l4.842,6.664c0.325,0.447,0.226,1.072-0.221,1.396
			C44.843,37.454,44.638,37.517,44.434,37.517z"/>
		<path style="opacity:0.6;fill:#FFFFFF;" d="M16.773,43.396c-0.069,0-0.139-0.007-0.209-0.021c-0.54-0.115-0.885-0.646-0.77-1.187
			l1.549-7.288c0.114-0.54,0.645-0.884,1.186-0.771c0.54,0.115,0.885,0.646,0.77,1.187l-1.549,7.288
			C17.651,43.074,17.235,43.396,16.773,43.396z"/>
		<path style="opacity:0.6;fill:#FFFFFF;" d="M3.566,37.517c-0.201,0-0.404-0.061-0.58-0.186c-0.45-0.321-0.554-0.945-0.233-1.396
			l4.348-6.094c0.32-0.449,0.944-0.554,1.395-0.233c0.45,0.321,0.554,0.945,0.233,1.396l-4.348,6.094
			C4.187,37.371,3.879,37.517,3.566,37.517z"/>
	</g>
	<path style="fill:#FFFFFF;" d="M23.512,36.706c-8.759,0-16.858-4.665-21.172-12.209c-0.274-0.479-0.108-1.09,0.372-1.365
		c0.479-0.273,1.091-0.108,1.365,0.372c3.958,6.921,11.394,11.203,19.436,11.203c0.058,0,0.116,0,0.174-0.001
		c7.962-0.062,14.759-4.139,18.646-11.188c0.267-0.484,0.874-0.66,1.359-0.393c0.483,0.267,0.659,0.875,0.393,1.358
		C39.899,32.07,32.279,36.64,23.702,36.705C23.639,36.705,23.575,36.706,23.512,36.706z"/>
	<rect id="icon-splus-hide-password_3_" style="opacity:0;fill:#FFFFFF;" width="48" height="48"/>
</g>
</svg>
