<?xml version="1.0" encoding="iso-8859-1"?>
<!-- Generator: Adobe Illustrator 22.1.0, SVG Export Plug-In . SVG Version: 6.00 Build 0)  -->
<svg version="1.1" id="Layer_1" xmlns="http://www.w3.org/2000/svg" xmlns:xlink="http://www.w3.org/1999/xlink" x="0px" y="0px"	 width="64" height="64" viewBox="0 0 64 64" style="enable-background:new 0 0 64 64;" xml:space="preserve">
<g id="icon-m-cancel">
	<path style="fill:#FFFFFF;" d="M49.198,50.052c-0.218,0-0.436-0.083-0.602-0.249L35.205,36.409
		c-1.119-1.119-1.736-2.613-1.736-4.207c0-1.593,0.617-3.087,1.737-4.207l13.396-13.394c0.332-0.332,0.87-0.332,1.202,0
		c0.331,0.332,0.331,0.87-0.001,1.202L36.407,29.197c-0.798,0.799-1.238,1.866-1.238,3.005c0,1.14,0.44,2.207,1.238,3.006
		L49.8,48.602c0.331,0.332,0.331,0.87-0.001,1.202C49.633,49.969,49.416,50.052,49.198,50.052z"/>
	<path style="fill:#FFFFFF;" d="M15.202,50.052c-0.217,0-0.435-0.083-0.601-0.249c-0.332-0.331-0.332-0.869,0-1.201l13.392-13.394
		c1.657-1.657,1.657-4.354,0-6.011L14.601,15.803c-0.332-0.332-0.332-0.87,0-1.202c0.332-0.333,0.87-0.332,1.202,0l13.392,13.394
		c2.32,2.32,2.32,6.095,0,8.415L15.803,49.803C15.637,49.969,15.42,50.052,15.202,50.052z"/>
	<rect id="icon-m-cancel_1_" style="opacity:0;fill:#FFFFFF;" width="64" height="64"/>
</g>
</svg>
