<?xml version="1.0" standalone="no"?><!-- Generator: Gravit.io --><svg xmlns="http://www.w3.org/2000/svg" xmlns:xlink="http://www.w3.org/1999/xlink" style="isolation:isolate" viewBox="0 0 26 62.85" width="26" height="62.85"><defs><clipPath id="_clipPath_XpkU56BKGIq1j88rO0kb3o2G5NnW8vTL"><rect width="26" height="62.85"/></clipPath></defs><g clip-path="url(#_clipPath_XpkU56BKGIq1j88rO0kb3o2G5NnW8vTL)"><path d=" M 2.3 49.2 L 2.3 48.2 L 2.3 48.2 Q 6.35 44.05 9.35 40.775 L 9.35 40.775 L 9.35 40.775 Q 12.35 37.5 14.35 34.8 L 14.35 34.8 L 14.35 34.8 Q 16.35 32.1 17.325 29.825 L 17.325 29.825 L 17.325 29.825 Q 18.3 27.55 18.3 25.4 L 18.3 25.4 L 18.3 25.4 Q 18.3 23.85 17.875 22.5 L 17.875 22.5 L 17.875 22.5 Q 17.45 21.15 16.55 20.15 L 16.55 20.15 L 16.55 20.15 Q 15.65 19.15 14.275 18.575 L 14.275 18.575 L 14.275 18.575 Q 12.9 18 11 18 L 11 18 L 11 18 Q 8.75 18 6.775 19.2 L 6.775 19.2 L 6.775 19.2 Q 4.8 20.4 3.3 22.3 L 3.3 22.3 L 2.2 21.3 L 2.2 21.3 Q 3.95 19.35 6.1 17.975 L 6.1 17.975 L 6.1 17.975 Q 8.25 16.6 11.1 16.6 L 11.1 16.6 L 11.1 16.6 Q 15.35 16.6 17.625 19 L 17.625 19 L 17.625 19 Q 19.9 21.4 19.9 25.4 L 19.9 25.4 L 19.9 25.4 Q 19.9 27.85 18.825 30.275 L 18.825 30.275 L 18.825 30.275 Q 17.75 32.7 15.775 35.4 L 15.775 35.4 L 15.775 35.4 Q 13.8 38.1 10.95 41.175 L 10.95 41.175 L 10.95 41.175 Q 8.1 44.25 4.6 48 L 4.6 48 L 4.6 48 Q 5.95 47.9 7.3 47.85 L 7.3 47.85 L 7.3 47.85 Q 8.65 47.8 10 47.8 L 10 47.8 L 21.5 47.8 L 21.5 49.2 L 2.3 49.2 Z " fill="rgb(255,255,255)"/></g></svg>