<?xml version="1.0" standalone="no"?><!-- Generator: Gravit.io --><svg xmlns="http://www.w3.org/2000/svg" xmlns:xlink="http://www.w3.org/1999/xlink" style="isolation:isolate" viewBox="0 0 26 62.85" width="26" height="62.85"><defs><clipPath id="_clipPath_o4NB93wD14lkduahq87IC1HrXst5jm9W"><rect width="26" height="62.85"/></clipPath></defs><g clip-path="url(#_clipPath_o4NB93wD14lkduahq87IC1HrXst5jm9W)"><path d=" M 12 49.8 L 12 49.8 L 12 49.8 Q 7.45 49.8 5.075 45.45 L 5.075 45.45 L 5.075 45.45 Q 2.7 41.1 2.7 33.1 L 2.7 33.1 L 2.7 33.1 Q 2.7 25.1 5.075 20.85 L 5.075 20.85 L 5.075 20.85 Q 7.45 16.6 12 16.6 L 12 16.6 L 12 16.6 Q 16.55 16.6 18.925 20.85 L 18.925 20.85 L 18.925 20.85 Q 21.3 25.1 21.3 33.1 L 21.3 33.1 L 21.3 33.1 Q 21.3 41.1 18.925 45.45 L 18.925 45.45 L 18.925 45.45 Q 16.55 49.8 12 49.8 Z  M 12 48.4 L 12 48.4 L 12 48.4 Q 15.55 48.4 17.625 44.475 L 17.625 44.475 L 17.625 44.475 Q 19.7 40.55 19.7 33.1 L 19.7 33.1 L 19.7 33.1 Q 19.7 25.65 17.625 21.825 L 17.625 21.825 L 17.625 21.825 Q 15.55 18 12 18 L 12 18 L 12 18 Q 8.45 18 6.375 21.825 L 6.375 21.825 L 6.375 21.825 Q 4.3 25.65 4.3 33.1 L 4.3 33.1 L 4.3 33.1 Q 4.3 40.55 6.375 44.475 L 6.375 44.475 L 6.375 44.475 Q 8.45 48.4 12 48.4 Z " fill-rule="evenodd" fill="rgb(255,255,255)"/></g></svg>