<?xml version="1.0" encoding="iso-8859-1"?>
<!-- Generator: Adobe Illustrator 22.1.0, SVG Export Plug-In . SVG Version: 6.00 Build 0)  -->
<svg version="1.1" id="Layer_1" xmlns="http://www.w3.org/2000/svg" xmlns:xlink="http://www.w3.org/1999/xlink" x="0px" y="0px"	 width="64" height="64" viewBox="0 0 64 64" style="enable-background:new 0 0 64 64;" xml:space="preserve">
<g id="icon-m-backspace-lockscreen">
	<rect id="icon-m-backspace-lockscreen_1_" style="opacity:0;fill:#FFFFFF;" width="64" height="64"/>
	<g style="opacity:0.6;">
		<path style="fill:#FFFFFF;" d="M56.607,53.418h-34.23c-2.26,0-5.204-1.324-6.702-3.016L1.813,34.76
			c-1.633-1.842-1.633-4.841,0-6.684l13.862-15.642c1.499-1.691,4.442-3.016,6.702-3.016h34.23c2.525,0,4.58,2.054,4.58,4.58v34.841
			C61.188,51.364,59.133,53.418,56.607,53.418z M22.377,11.418c-1.696,0-4.08,1.073-5.205,2.342L3.31,29.402
			c-0.968,1.093-0.968,2.939,0,4.032l13.862,15.643c1.125,1.27,3.508,2.342,5.205,2.342h34.23c1.423,0,2.58-1.157,2.58-2.579V13.998
			c0-1.422-1.157-2.58-2.58-2.58H22.377z"/>
	</g>
	<path style="fill:#FFFFFF;" d="M48.647,44c-0.256,0-0.512-0.098-0.707-0.293l-6.755-6.757c-2.729-2.729-2.729-7.171,0-9.9
		l6.758-6.757c0.391-0.391,1.023-0.391,1.414,0s0.391,1.023,0,1.414L42.6,28.464c-1.949,1.95-1.949,5.122,0,7.072l6.755,6.757
		c0.391,0.391,0.391,1.023,0,1.414C49.159,43.902,48.903,44,48.647,44z"/>
	<path style="fill:#FFFFFF;" d="M26.65,44c-0.256,0-0.512-0.098-0.707-0.293c-0.391-0.391-0.391-1.023,0-1.414l6.758-6.758
		c1.949-1.949,1.949-5.121,0-7.071l-6.758-6.757c-0.391-0.391-0.391-1.023,0-1.414s1.023-0.391,1.414,0l6.758,6.757
		c2.729,2.729,2.729,7.17,0,9.899l-6.758,6.758C27.162,43.902,26.906,44,26.65,44z"/>
</g>
</svg>
