<?xml version="1.0" standalone="no"?><!-- Generator: Gravit.io --><svg xmlns="http://www.w3.org/2000/svg" xmlns:xlink="http://www.w3.org/1999/xlink" style="isolation:isolate" viewBox="0 0 26 62.85" width="26" height="62.85"><defs><clipPath id="_clipPath_ACLDWieqZrPSDyO2xuFGVvyPv00uTgIu"><rect width="26" height="62.85"/></clipPath></defs><g clip-path="url(#_clipPath_ACLDWieqZrPSDyO2xuFGVvyPv00uTgIu)"><path d=" M 3.1 38 L 15.8 38 L 15.8 25.4 L 15.8 25.4 Q 15.8 24.35 15.85 22.75 L 15.85 22.75 L 15.85 22.75 Q 15.9 21.15 16 20.1 L 16 20.1 L 15.8 20.1 L 15.8 20.1 Q 15.2 21.1 14.55 21.975 L 14.55 21.975 L 14.55 21.975 Q 13.9 22.85 13.2 23.9 L 13.2 23.9 L 3.1 38 Z  M 22.2 38 L 22.2 39.4 L 17.3 39.4 L 17.3 49.2 L 15.8 49.2 L 15.8 39.4 L 1 39.4 L 1 38.6 L 16.3 17.2 L 17.3 17.2 L 17.3 38 L 22.2 38 Z " fill-rule="evenodd" fill="rgb(255,255,255)"/></g></svg>