<?xml version="1.0" encoding="iso-8859-1"?>
<!-- Generator: Adobe Illustrator 24.0.2, SVG Export Plug-In . SVG Version: 6.00 Build 0)  -->
<svg version="1.1" id="Layer_1" xmlns="http://www.w3.org/2000/svg" xmlns:xlink="http://www.w3.org/1999/xlink" x="0px" y="0px"	 width="48" height="48" viewBox="0 0 48 48" style="enable-background:new 0 0 48 48;" xml:space="preserve">
<g id="icon-splus-show-password">
	<g>
		<path style="fill:#FFFFFF;" d="M24.303,36.706c-8.758,0-16.857-4.665-21.171-12.209c-0.173-0.303-0.176-0.674-0.007-0.979
			C7.31,15.93,14.929,11.361,23.507,11.295c8.822-0.029,17.016,4.61,21.361,12.208c0.173,0.303,0.176,0.674,0.008,0.979
			C40.69,32.07,33.07,36.64,24.493,36.705C24.43,36.705,24.366,36.706,24.303,36.706z M5.155,23.99
			c4.023,6.635,11.297,10.716,19.148,10.716c0.059,0,0.116,0,0.174-0.001c7.774-0.06,14.438-3.949,18.367-10.695
			c-4.023-6.635-11.297-10.715-19.148-10.715c-0.058,0-0.116,0-0.174,0C15.748,13.355,9.084,17.244,5.155,23.99z"/>
	</g>
	<path style="opacity:0.6;fill:#FFFFFF;" d="M24,30.866c-3.786,0-6.866-3.08-6.866-6.866s3.08-6.866,6.866-6.866
		s6.866,3.08,6.866,6.866S27.786,30.866,24,30.866z M24,19.134c-2.683,0-4.866,2.183-4.866,4.866c0,2.684,2.183,4.866,4.866,4.866
		c2.684,0,4.866-2.183,4.866-4.866C28.866,21.317,26.684,19.134,24,19.134z"/>
	<rect id="icon-splus-show-password_1_" style="opacity:0;fill:#FFFFFF;" width="48" height="48"/>
</g>
</svg>
