<?xml version="1.0" standalone="no"?><!-- Generator: Gravit.io --><svg xmlns="http://www.w3.org/2000/svg" xmlns:xlink="http://www.w3.org/1999/xlink" style="isolation:isolate" viewBox="0 0 26 62.85" width="26" height="62.85"><defs><clipPath id="_clipPath_3skzv5lCBiVo6OsRxTJf6CLN9P5k2S9a"><rect width="26" height="62.85"/></clipPath></defs><g clip-path="url(#_clipPath_3skzv5lCBiVo6OsRxTJf6CLN9P5k2S9a)"><path d=" M 1.7 45.3 L 2.7 44.2 L 2.7 44.2 Q 3.4 45 4.275 45.75 L 4.275 45.75 L 4.275 45.75 Q 5.15 46.5 6.25 47.1 L 6.25 47.1 L 6.25 47.1 Q 7.35 47.7 8.7 48.05 L 8.7 48.05 L 8.7 48.05 Q 10.05 48.4 11.8 48.4 L 11.8 48.4 L 11.8 48.4 Q 13.5 48.4 14.925 47.85 L 14.925 47.85 L 14.925 47.85 Q 16.35 47.3 17.4 46.325 L 17.4 46.325 L 17.4 46.325 Q 18.45 45.35 19.025 43.975 L 19.025 43.975 L 19.025 43.975 Q 19.6 42.6 19.6 40.9 L 19.6 40.9 L 19.6 40.9 Q 19.6 39.2 18.95 37.75 L 18.95 37.75 L 18.95 37.75 Q 18.3 36.3 16.9 35.275 L 16.9 35.275 L 16.9 35.275 Q 15.5 34.25 13.325 33.675 L 13.325 33.675 L 13.325 33.675 Q 11.15 33.1 8.1 33.1 L 8.1 33.1 L 8.1 31.6 L 8.1 31.6 Q 10.95 31.6 12.925 31.025 L 12.925 31.025 L 12.925 31.025 Q 14.9 30.45 16.1 29.45 L 16.1 29.45 L 16.1 29.45 Q 17.3 28.45 17.85 27.125 L 17.85 27.125 L 17.85 27.125 Q 18.4 25.8 18.4 24.3 L 18.4 24.3 L 18.4 24.3 Q 18.4 21.45 16.55 19.725 L 16.55 19.725 L 16.55 19.725 Q 14.7 18 11.6 18 L 11.6 18 L 11.6 18 Q 9.35 18 7.4 19.05 L 7.4 19.05 L 7.4 19.05 Q 5.45 20.1 4.1 21.6 L 4.1 21.6 L 3.1 20.5 L 3.1 20.5 Q 4.7 18.9 6.75 17.75 L 6.75 17.75 L 6.75 17.75 Q 8.8 16.6 11.6 16.6 L 11.6 16.6 L 11.6 16.6 Q 13.35 16.6 14.9 17.125 L 14.9 17.125 L 14.9 17.125 Q 16.45 17.65 17.575 18.625 L 17.575 18.625 L 17.575 18.625 Q 18.7 19.6 19.35 21 L 19.35 21 L 19.35 21 Q 20 22.4 20 24.2 L 20 24.2 L 20 24.2 Q 20 25.8 19.525 27.1 L 19.525 27.1 L 19.525 27.1 Q 19.05 28.4 18.225 29.375 L 18.225 29.375 L 18.225 29.375 Q 17.4 30.35 16.25 31.05 L 16.25 31.05 L 16.25 31.05 Q 15.1 31.75 13.8 32.2 L 13.8 32.2 L 13.8 32.4 L 13.8 32.4 Q 15.3 32.7 16.65 33.4 L 16.65 33.4 L 16.65 33.4 Q 18 34.1 19 35.175 L 19 35.175 L 19 35.175 Q 20 36.25 20.6 37.675 L 20.6 37.675 L 20.6 37.675 Q 21.2 39.1 21.2 40.8 L 21.2 40.8 L 21.2 40.8 Q 21.2 42.85 20.475 44.525 L 20.475 44.525 L 20.475 44.525 Q 19.75 46.2 18.475 47.375 L 18.475 47.375 L 18.475 47.375 Q 17.2 48.55 15.45 49.175 L 15.45 49.175 L 15.45 49.175 Q 13.7 49.8 11.7 49.8 L 11.7 49.8 L 11.7 49.8 Q 9.8 49.8 8.275 49.4 L 8.275 49.4 L 8.275 49.4 Q 6.75 49 5.55 48.35 L 5.55 48.35 L 5.55 48.35 Q 4.35 47.7 3.4 46.9 L 3.4 46.9 L 3.4 46.9 Q 2.45 46.1 1.7 45.3 L 1.7 45.3 Z " fill="rgb(255,255,255)"/></g></svg>