<?xml version="1.0" standalone="no"?><!-- Generator: Gravit.io --><svg xmlns="http://www.w3.org/2000/svg" xmlns:xlink="http://www.w3.org/1999/xlink" style="isolation:isolate" viewBox="0 0 26 62.85" width="26" height="62.85"><defs><clipPath id="_clipPath_dPj8hvKunGbmNNmFBOUR5vwshYuOVo6o"><rect width="26" height="62.85"/></clipPath></defs><g clip-path="url(#_clipPath_dPj8hvKunGbmNNmFBOUR5vwshYuOVo6o)"><path d=" M 11.3 35 L 11.3 35 L 11.3 35 Q 13.05 35 15.2 33.85 L 15.2 33.85 L 15.2 33.85 Q 17.35 32.7 19.45 29.95 L 19.45 29.95 L 19.45 29.95 Q 19.3 27.35 18.725 25.15 L 18.725 25.15 L 18.725 25.15 Q 18.15 22.95 17.1 21.375 L 17.1 21.375 L 17.1 21.375 Q 16.05 19.8 14.475 18.9 L 14.475 18.9 L 14.475 18.9 Q 12.9 18 10.8 18 L 10.8 18 L 10.8 18 Q 9.35 18 8.1 18.675 L 8.1 18.675 L 8.1 18.675 Q 6.85 19.35 5.95 20.5 L 5.95 20.5 L 5.95 20.5 Q 5.05 21.65 4.525 23.2 L 4.525 23.2 L 4.525 23.2 Q 4 24.75 4 26.5 L 4 26.5 L 4 26.5 Q 4 28.3 4.4 29.85 L 4.4 29.85 L 4.4 29.85 Q 4.8 31.4 5.7 32.55 L 5.7 32.55 L 5.7 32.55 Q 6.6 33.7 7.975 34.35 L 7.975 34.35 L 7.975 34.35 Q 9.35 35 11.3 35 Z  M 3.1 46.8 L 4.1 45.7 L 4.1 45.7 Q 5.2 47.05 6.6 47.725 L 6.6 47.725 L 6.6 47.725 Q 8 48.4 9.6 48.4 L 9.6 48.4 L 9.6 48.4 Q 11.55 48.4 13.35 47.55 L 13.35 47.55 L 13.35 47.55 Q 15.15 46.7 16.5 44.75 L 16.5 44.75 L 16.5 44.75 Q 17.85 42.8 18.675 39.625 L 18.675 39.625 L 18.675 39.625 Q 19.5 36.45 19.5 31.85 L 19.5 31.85 L 19.5 31.85 Q 17.8 33.95 15.675 35.175 L 15.675 35.175 L 15.675 35.175 Q 13.55 36.4 11.2 36.4 L 11.2 36.4 L 11.2 36.4 Q 6.95 36.4 4.675 33.875 L 4.675 33.875 L 4.675 33.875 Q 2.4 31.35 2.4 26.5 L 2.4 26.5 L 2.4 26.5 Q 2.4 24.35 3.075 22.55 L 3.075 22.55 L 3.075 22.55 Q 3.75 20.75 4.925 19.425 L 4.925 19.425 L 4.925 19.425 Q 6.1 18.1 7.625 17.35 L 7.625 17.35 L 7.625 17.35 Q 9.15 16.6 10.9 16.6 L 10.9 16.6 L 10.9 16.6 Q 15.75 16.6 18.425 20.525 L 18.425 20.525 L 18.425 20.525 Q 21.1 24.45 21.1 31.6 L 21.1 31.6 L 21.1 31.6 Q 21.1 36.7 20.15 40.175 L 20.15 40.175 L 20.15 40.175 Q 19.2 43.65 17.6 45.8 L 17.6 45.8 L 17.6 45.8 Q 16 47.95 13.9 48.875 L 13.9 48.875 L 13.9 48.875 Q 11.8 49.8 9.5 49.8 L 9.5 49.8 L 9.5 49.8 Q 7.4 49.8 5.825 48.975 L 5.825 48.975 L 5.825 48.975 Q 4.25 48.15 3.1 46.8 L 3.1 46.8 Z " fill-rule="evenodd" fill="rgb(255,255,255)"/></g></svg>