<?xml version="1.0" standalone="no"?><!-- Generator: Gravit.io --><svg xmlns="http://www.w3.org/2000/svg" xmlns:xlink="http://www.w3.org/1999/xlink" style="isolation:isolate" viewBox="0 0 26 62.85" width="26" height="62.85"><defs><clipPath id="_clipPath_lZ9MGcIwymsDWDuBXTvekeRyZMRVFwe1"><rect width="26" height="62.85"/></clipPath></defs><g clip-path="url(#_clipPath_lZ9MGcIwymsDWDuBXTvekeRyZMRVFwe1)"><path d=" M 1.5 45.5 L 2.5 44.4 L 2.5 44.4 Q 3.2 45.15 4.05 45.875 L 4.05 45.875 L 4.05 45.875 Q 4.9 46.6 5.975 47.15 L 5.975 47.15 L 5.975 47.15 Q 7.05 47.7 8.4 48.05 L 8.4 48.05 L 8.4 48.05 Q 9.75 48.4 11.5 48.4 L 11.5 48.4 L 11.5 48.4 Q 13.15 48.4 14.65 47.75 L 14.65 47.75 L 14.65 47.75 Q 16.15 47.1 17.3 45.9 L 17.3 45.9 L 17.3 45.9 Q 18.45 44.7 19.125 43.025 L 19.125 43.025 L 19.125 43.025 Q 19.8 41.35 19.8 39.3 L 19.8 39.3 L 19.8 39.3 Q 19.8 35.25 17.575 32.925 L 17.575 32.925 L 17.575 32.925 Q 15.35 30.6 11.6 30.6 L 11.6 30.6 L 11.6 30.6 Q 9.7 30.6 8.325 31.2 L 8.325 31.2 L 8.325 31.2 Q 6.95 31.8 5.5 32.8 L 5.5 32.8 L 4.2 32 L 5.4 17.2 L 19.7 17.2 L 19.7 18.6 L 6.8 18.6 L 5.7 30.9 L 5.7 30.9 Q 7 30.1 8.4 29.6 L 8.4 29.6 L 8.4 29.6 Q 9.8 29.1 11.7 29.1 L 11.7 29.1 L 11.7 29.1 Q 13.7 29.1 15.475 29.7 L 15.475 29.7 L 15.475 29.7 Q 17.25 30.3 18.575 31.525 L 18.575 31.525 L 18.575 31.525 Q 19.9 32.75 20.65 34.675 L 20.65 34.675 L 20.65 34.675 Q 21.4 36.6 21.4 39.2 L 21.4 39.2 L 21.4 39.2 Q 21.4 41.75 20.55 43.725 L 20.55 43.725 L 20.55 43.725 Q 19.7 45.7 18.275 47.05 L 18.275 47.05 L 18.275 47.05 Q 16.85 48.4 15.05 49.1 L 15.05 49.1 L 15.05 49.1 Q 13.25 49.8 11.4 49.8 L 11.4 49.8 L 11.4 49.8 Q 9.5 49.8 8 49.4 L 8 49.4 L 8 49.4 Q 6.5 49 5.3 48.4 L 5.3 48.4 L 5.3 48.4 Q 4.1 47.8 3.175 47.025 L 3.175 47.025 L 3.175 47.025 Q 2.25 46.25 1.5 45.5 L 1.5 45.5 Z " fill="rgb(255,255,255)"/></g></svg>