<?xml version="1.0" standalone="no"?><!-- Generator: Gravit.io --><svg xmlns="http://www.w3.org/2000/svg" xmlns:xlink="http://www.w3.org/1999/xlink" style="isolation:isolate" viewBox="0 0 26 62.85" width="26" height="62.85"><defs><clipPath id="_clipPath_299Gqw7tNmfSxLhlXnNUDKbbGgd3gLrH"><rect width="26" height="62.85"/></clipPath></defs><g clip-path="url(#_clipPath_299Gqw7tNmfSxLhlXnNUDKbbGgd3gLrH)"><path d=" M 12.45 32.8 L 12.45 32.8 L 12.45 32.8 Q 4.45 34.75 4.45 41.1 L 4.45 41.1 L 4.45 41.1 Q 4.45 44.2 6.7 46.35 L 6.7 46.35 L 6.7 46.35 Q 9 48.5 12.45 48.5 L 12.45 48.5 L 12.45 48.5 Q 15.9 48.5 18.2 46.35 L 18.2 46.35 L 18.2 46.35 Q 20.45 44.2 20.45 41.1 L 20.45 41.1 L 20.45 41.1 Q 20.45 34.75 12.45 32.8 Z  M 12.45 49.9 L 12.45 49.9 L 12.45 49.9 Q 8.3 49.9 5.6 47.35 L 5.6 47.35 L 5.6 47.35 Q 2.85 44.85 2.85 41.1 L 2.85 41.1 L 2.85 41.1 Q 2.85 34.25 10.1 31.9 L 10.1 31.9 L 10.1 31.7 L 10.1 31.7 Q 4.55 29.55 4.55 24.3 L 4.55 24.3 L 4.55 24.3 Q 4.55 21.05 6.8 18.85 L 6.8 18.85 L 6.8 18.85 Q 9.2 16.7 12.45 16.7 L 12.45 16.7 L 12.45 16.7 Q 15.7 16.7 18.1 18.85 L 18.1 18.85 L 18.1 18.85 Q 20.35 21.05 20.35 24.3 L 20.35 24.3 L 20.35 24.3 Q 20.35 29.55 14.8 31.7 L 14.8 31.7 L 14.8 31.9 L 14.8 31.9 Q 22.05 34.25 22.05 41.1 L 22.05 41.1 L 22.05 41.1 Q 22.05 44.85 19.3 47.35 L 19.3 47.35 L 19.3 47.35 Q 16.6 49.9 12.45 49.9 Z  M 12.45 18.1 L 12.45 18.1 L 12.45 18.1 Q 9.75 18.1 7.9 19.9 L 7.9 19.9 L 7.9 19.9 Q 6.15 21.7 6.15 24.3 L 6.15 24.3 L 6.15 24.3 Q 6.15 29.15 12.45 30.95 L 12.45 30.95 L 12.45 30.95 Q 18.75 29.15 18.75 24.3 L 18.75 24.3 L 18.75 24.3 Q 18.75 21.7 17 19.9 L 17 19.9 L 17 19.9 Q 15.15 18.1 12.45 18.1 Z " fill-rule="evenodd" fill="rgb(255,255,255)"/></g></svg>