<?xml version="1.0" standalone="no"?><!-- Generator: Gravit.io --><svg xmlns="http://www.w3.org/2000/svg" xmlns:xlink="http://www.w3.org/1999/xlink" style="isolation:isolate" viewBox="0 0 26 62.85" width="26" height="62.85"><defs><clipPath id="_clipPath_ROECXEPvbwbCou4XVRPIR0ikSByzE5AK"><rect width="26" height="62.85"/></clipPath></defs><g clip-path="url(#_clipPath_ROECXEPvbwbCou4XVRPIR0ikSByzE5AK)"><path d=" M 13.2 48.4 L 13.2 48.4 L 13.2 48.4 Q 14.65 48.4 15.9 47.725 L 15.9 47.725 L 15.9 47.725 Q 17.15 47.05 18.05 45.9 L 18.05 45.9 L 18.05 45.9 Q 18.95 44.75 19.475 43.2 L 19.475 43.2 L 19.475 43.2 Q 20 41.65 20 39.9 L 20 39.9 L 20 39.9 Q 20 38.1 19.6 36.55 L 19.6 36.55 L 19.6 36.55 Q 19.2 35 18.3 33.85 L 18.3 33.85 L 18.3 33.85 Q 17.4 32.7 16.025 32.05 L 16.025 32.05 L 16.025 32.05 Q 14.65 31.4 12.7 31.4 L 12.7 31.4 L 12.7 31.4 Q 10.95 31.4 8.8 32.55 L 8.8 32.55 L 8.8 32.55 Q 6.65 33.7 4.55 36.45 L 4.55 36.45 L 4.55 36.45 Q 4.7 39.05 5.275 41.25 L 5.275 41.25 L 5.275 41.25 Q 5.85 43.45 6.9 45.025 L 6.9 45.025 L 6.9 45.025 Q 7.95 46.6 9.525 47.5 L 9.525 47.5 L 9.525 47.5 Q 11.1 48.4 13.2 48.4 Z  M 20.9 19.6 L 19.9 20.7 L 19.9 20.7 Q 18.8 19.35 17.4 18.675 L 17.4 18.675 L 17.4 18.675 Q 16 18 14.4 18 L 14.4 18 L 14.4 18 Q 12.45 18 10.65 18.85 L 10.65 18.85 L 10.65 18.85 Q 8.85 19.7 7.5 21.65 L 7.5 21.65 L 7.5 21.65 Q 6.15 23.6 5.325 26.775 L 5.325 26.775 L 5.325 26.775 Q 4.5 29.95 4.5 34.55 L 4.5 34.55 L 4.5 34.55 Q 6.2 32.45 8.325 31.225 L 8.325 31.225 L 8.325 31.225 Q 10.45 30 12.8 30 L 12.8 30 L 12.8 30 Q 17.05 30 19.325 32.525 L 19.325 32.525 L 19.325 32.525 Q 21.6 35.05 21.6 39.9 L 21.6 39.9 L 21.6 39.9 Q 21.6 42.05 20.925 43.85 L 20.925 43.85 L 20.925 43.85 Q 20.25 45.65 19.075 46.975 L 19.075 46.975 L 19.075 46.975 Q 17.9 48.3 16.35 49.05 L 16.35 49.05 L 16.35 49.05 Q 14.8 49.8 13.1 49.8 L 13.1 49.8 L 13.1 49.8 Q 8.25 49.8 5.575 45.875 L 5.575 45.875 L 5.575 45.875 Q 2.9 41.95 2.9 34.8 L 2.9 34.8 L 2.9 34.8 Q 2.9 29.7 3.85 26.225 L 3.85 26.225 L 3.85 26.225 Q 4.8 22.75 6.4 20.6 L 6.4 20.6 L 6.4 20.6 Q 8 18.45 10.1 17.525 L 10.1 17.525 L 10.1 17.525 Q 12.2 16.6 14.5 16.6 L 14.5 16.6 L 14.5 16.6 Q 16.6 16.6 18.15 17.425 L 18.15 17.425 L 18.15 17.425 Q 19.7 18.25 20.9 19.6 L 20.9 19.6 Z " fill-rule="evenodd" fill="rgb(255,255,255)"/></g></svg>